<?xml version="1.0" encoding="UTF-8"?>
<svg version="1.1" viewBox="0 0 896 896" width="224" height="224" xmlns="http://www.w3.org/2000/svg">
<path transform="translate(0)" d="m0 0h896v896h-896z" fill="#0D3B98"/>
<path transform="translate(106,73)" d="m0 0h6l6 8 12 12 8 7 6 5v2l4 2 10 9 2 1v2l3 1v2h8l8-4 2 1-3 3h-2l-1 3-42 21-19 10-16 8-11 6-2 2-4 1-4 52-4 38-2 5-2 16-3 1-2 4-5 2v3l6 1v2h2l1 2 9 5 8 6 15 10 17 12 30 20 5 2 5 5 11 6 9 5 9 1 14-7 7-2h18l10 3 11 6 8 7 6 11 3 10v133h41l6 2 2 1v2l-7 2h-4l-1 3-2 1h-87l1 9-2 15 7-2 16-6 6-2h4l1 4-19 7-9 3v2l-4 2h-3v3l-6 4h-2v2l-6 4-15 4-14 6-7 1-1-4h-5l-1 4-7 3-4-1-3-2-2 4-3 3-4 1-1 3-15 5-16 4-29 9-14 3-3-2-2 4-18 6-2 19-4 50v14l16-5 29-8 49-14 42-11 58-17 19-5 63-18 24-7 28-7 24-7 27-7 18-5 48-14 31-9 27-7 47-12 26-6 28-8 36-9 19-6h3l1-4 3-3h3v-8l1 2h4v2h6l1-3v-17l-7-11-11-17-4-4v55l-1 1h-16l-4-4-16-23-7-12-1-1v39l-1 1h-14l-1-9v-49l2-1h18l7 9 15 23 3 6 1-37 1-1h31l5 5 8 16v2h3l2-5 9-17 1-1h17v3l-12 17-9 14-1 6v16l11-4 29-8 23-7 25-7 71-19 8-2h5v411h-896v-802l24-5 34-6z" fill="#2754AF"/>
<path transform="translate(892,59)" d="m0 0 4 1v310l-27 8-20 5-7 2h-9v2l-3 2-5-1v-79l1-68-6 3-1 2h-2l1 9v52l-1 61v24l-13 6-22 6-12 4-10 4-9 3h-8l-2 5-4 4-5 1 7 9 6 15 2 8-7 1h-9l-5-5-6-16-3-4-13-1 1 24-1 1h-41l-3-5-3-11h-24l-2 9-2 7-2 1-15 1v2h-2v2l7 2 5 1-1 5-3 1-4 4-10-1-3-2-7-2-3-1v2l-5 1v1l-8 1 18 1 3 3 10 26 10 25 1 4-1 1h-17l-4-8-2-6-21-1-1 6-3 9h-34l-1-1-2-34v-9l-7 20-9 22-3 2h-9l-3-3-8-22-5-16-1 2-1 31-1 8h-15v-23h-2l-5-5h2l2-5-4 1-6 3h-2l6 7 7 21v1h-16l-3-5-4-12-5-5-10-1v22l-1 1h-80l-12 1h-20l-12-4-9-8-5-9-1-5v-8l3-8 4-6 8-7 9-4 14-2 23 1-1-3 1-14-13-1v-2l-3-1-4-7-12-18-7-11-4-8v26l-1 21h-16l-1-4v-59l2-3h19l5 5 13 18 8 13 3 6v2h2l-1-4-1-38 1-2 16 1 1 1 1 7 15-5 4 1 2 1 1 4 4-9 8-6 29-9 20-7 21-7 3-53 3-61 2-8 3-5v-4l18-6 9-4 32-13 26-11 20-8 11-5 12-5 27-12 16-6 29-13 17-7 11-5 17-7 13-6 13-5 13-6 16-6 19-8 8-4 7-1v62l-1 62v17l29-11 4-1 1-74 2-68 1-3h4v-2l13-5 14-6z" fill="#2754AF"/>
<path transform="translate(106,73)" d="m0 0h6l6 8 12 12 8 7 6 5v2l4 2 10 9 2 1v2l3 1v2h8l8-4 2 1-3 3h-2l-1 3-42 21-19 10-16 8-11 6-2 2-4 1-4 52-4 38-2 5-2 16-3 1-2 4-5 2v3l6 1v2h2l1 2 9 5 8 6 15 10 17 12 30 20 5 2 5 5 11 6 9 5 9 1 14-7 7-2h18l10 3 11 6 8 7 6 11 3 10v133h41l6 2 2 1v2l-7 2h-4l-1 3-2 1h-87l1 9-2 15 7-2 16-6 6-2h4l1 4-19 7-9 3v2l-4 2h-3v3l-6 4h-2v2l-6 4-15 4-14 6-7 1-1-4h-5l-1 4-7 3-4-1-3-2-2 4-3 3-4 1-1 3-15 5-16 4-29 9-14 3-3-2-2 4-18 6-2 19-4 50-1 1-1 15 2 1h-2l1 2 13 4 7 1 6 2 10 3 2 2 5 2v2l5 1 9 4v2l11 3 11 2 4 1 1 2 7 1 2 1 7 1 6 2 20 4 10 3 2 1v2l-2 2-1 3-4 3 3 1 7 1h2l1-3 4 4h3l-1 18-2 22-4 3h-3l-1 2-1-5v-4l-3 6-2 2h-6l-5 1 1 3-4 1-1 3-4-1v-2l-7 2-1 1 4 1 1 4-6 1-5-2h-3v-2l-4-1-1 5-1 2h-15l-2 4-4 1-3-1-2 1 1 7-7 2-3 1v3l2 1v2l-7 2 4 4 2 1 1 5h-2l-1 5h2v2l7-1 1 4 3 1 3 6h-96v-802l24-5 34-6z" fill="#3D6AC7"/>
<path transform="translate(0)" d="m0 0h590v2l-11 6-7 3-52 26-31 15-11 5-25 12-16 8-16 7-19 10-9 4-7-2v6l-8 4-20 9-16 8-13 5h-6l-2 35v8l7-3h6l2 3v7l-4 4-11 4-20 9-23 11 1 2-6 2-8 1-16 8h-2v2l-13 5-20 10h-3v2l-9 3-15 7v3h-7l-27 12-24 11-24 10-11 5v1l29 6 9 3 9 2-2 4-4 1-9-1-5-1h-10l-7-2-17-3h-7l-1-2-5 1v2l-6 2-1-3h-2v-2l-3 1-3-2v-3l6-4 3-3 3-20 1-1 2-16 6-74 6-3 10-6 32-16 27-14 20-10 4-5-8 4h-6l-5-4v-2l-4-2-8-7-4-3v-2l-4-2-8-8-8-7-10-10-2-5-40 8-31 6-38 7h-3z" fill="#2653AE"/>
<path transform="translate(824,241)" d="m0 0h2v147l7-1v-2l14-2 17-5 18-5 11-3h3v115l-13 3-26 7-45 12-31 9-42 12-13 4h-2l-1-19 4-8 8-12 11-15v-1h-17l-12 22h-3l-8-16-3-5-2-1h-31l-1 38-2-1-6-11-17-25-1-1h-20l1 58 14-1v-40l5 5 7 12 12 17 3 4v2h18l1-55 4 2 11 18 7 10 1 2v17l-2 4-6-1v-2l-4 1-1 5-3 2-3 1-1 4-22 7-16 4-34 9-22 6-11 2-7 2-40 10-18 5-19 5-42 12-20 6-25 7-42 11-8 3-36 9-24 7-25 7-24 7-21 6-33 9-23 7-37 10-79 22-29 8-6 2v-15l4-50 3-19 5-3 13-3 2-5 1 2 12-2 26-8 14-4 19-5 5-2 3-3 4-1 3-6 6 2 6-2 2-1 1-3h5l3 3 10-3 11-5 13-3 4-3h2v-2l6-4h2v-3l22-9 9-2v5h10l-1-5h-2v-2l6-2 1 2 8-2 12-6 25-9 11-3 8-3 4-1-5-2 1-2 33-2h80l1-22h10l5 5 3 8 4 9h15l-7-21-5-5v-2l10-5 2 1-1 6-1 1 3 1v2h2v23h15l1-39 2-4 13 38 1 4h11l3-3 10-26 5-14 2-1 1 32 1 12 34 1 2-9 2-6h21l5 12 1 2h17l-2-6-11-28-8-21v-2l-22-1 2-2 7-1 3-2 3 1v-2l10 2 3 2 10 1 3-1 1-3 3-1v-4l-4 1v-2l-5-1-2-1v-2h2v-2l-3-1 20-1 2-10 2-6h24l5 14 1 1h41v-24h13l4 5 6 16 4 4h14l1-1-5-15-5-10-1-3-3-1v-2l6-3 4-5 3-3 10-1 14-5 7-3 14-4 19-6 6-3h2l-1-8v-31l1-61v-46h2l1-3z" fill="#0D3B98"/>
<path transform="translate(721)" d="m0 0h175v19l-5 3-16 6-28 12-17 7-21 9-12 5-13 6-26 11-30 13-21 9-34 15-24 10-13 6-12 5-15 7-26 11-15 7-12 5-15 7-10 4-26 11-16 8-19 9-14 8h-13l-28-7-15-4-52-13-7-3-7-2v-2l7-3 17-9 16-8 24-11 27-12 15-7 36-16 17-9 14-6h2v-2l26-12 19-10 28-12 15-6 13-6 21-9 17-8 16-9 23-11 16-8 5-1v-2l11-4z" fill="#2754AF"/>
<path transform="translate(824,241)" d="m0 0h2v147l7-1v-2l14-2 17-5 18-5 11-3h3v115l-13 3-26 7-45 12-31 9-42 12-13 4h-2l-1-19 4-8 8-12 11-15v-1h-17l-12 22h-3l-8-16-3-5-2-1h-31l-1 38-2-1-6-11-17-25-1-1h-20l1 58-4 1h-18v-1l17-1-2-6-11-28-8-21v-2l-22-1 2-2 7-1 3-2 3 1v-2l10 2 3 2 10 1 3-1 1-3 3-1v-4l-4 1v-2l-5-1-2-1v-2h2v-2l-3-1 20-1 2-10 2-6h24l5 14 1 1h41v-24h13l4 5 6 16 4 4h14l1-1-5-15-5-10-1-3-3-1v-2l6-3 4-5 3-3 10-1 14-5 7-3 14-4 19-6 6-3h2l-1-8v-31l1-61v-46h2l1-3z" fill="#0D3B98"/>
<path transform="translate(776,809)" d="m0 0h3v29l-1 8-5 2-11 3-1 1-10 2-23 4-26 5-24 3-39 6-1 2 42-6 32-5 7-2 17-2 3-1 31-4h8v37l-9 1-5 1v2l2 1h-389v-13l15-4 13-2h7v-2l16-5 33-7 20-4 3-1 24-3 38-7 20-3 35-6 25-5 10-1 13-3 17-3 36-6 21-4 38-5z" fill="#2653AE"/>
<path transform="translate(406,391)" d="m0 0 5 1 15 36 8 21 3 6v2l7-1 3 1v5l-7 3-6 2-1 7 19 2 10 4 5 5 1 3v8l-4 6-5 4h-2l6 7 7 21v1h-16l-3-5-4-12-5-5-10-1v22l-1 1h-80l-12 1h-20l-12-4-9-8-5-9-1-5v-8l3-8 4-6 8-7 9-4 14-2 23 1-1-3 1-14-13-1v-2l-3-1-4-7-12-18-7-11-4-8v26l-1 21h-16l-1-4v-59l2-3h19l5 5 13 18 8 13 3 6v2h2l-1-4-1-38 1-2 16 1 1 1 1 7 15-5 4 1 2 1 1 4 4-9 2-1z" fill="#3D6AC7"/>
<path transform="translate(207,364)" d="m0 0h18l10 3 11 6 8 7 6 11 3 10v133h41l6 2 2 1v2l-7 2h-4l-1 3-2 1h-166l-2-4 1-2 17-1h-10l-14 1-2-1 1-5 8-1 38 1v-129l3-12 7-12 7-7 14-7z" fill="#BED6EB"/>
<path transform="translate(439,382)" d="m0 0h3v2h-2l-1 7-3 1v34l1 12 4 9 5 6 6 3 12 2h9l12-2 8-5 5-7 3-12 1-5h1l1-7 3-3 1-3 1-21h1v64h19v-26h29v-10h1l1 7h2l-1-11v-10l3-1 1-15 2-1 5 1v1h-5v66l17-1 1-25 29-1 4-1-1 6-8 21h12v1l-9 1v2h-2v2l7 2 5 1-1 5-3 1-4 4-10-1-3-2-7-2-3-1v2l-5 1v1l-8 1 18 1 3 3 10 26 10 25 1 4-1 1h-17l-4-8-2-6-21-1-1 6-3 9h-34l-1-1-2-34v-9l-7 20-9 22-3 2h-9l-3-3-8-22-5-16-1 2-1 31-1 8h-15v-23h-2l-5-5h2l2-5-6 1 4-7v-8l-3-5-8-5-12-2-12-1 1-8 2-2 12-3v-5h-10l-5-10-11-29-9-22v-3l9-1 1-2 4-2 5-1 4-4z" fill="#2754B0"/>
<path transform="translate(0)" d="m0 0h139l-2 3-10 4-6 4h-3l-4 4h-2l-1 2-5 2-1 2h-2l-1 2-4 2h-3v2h-2l-1 4h-2l-1 3-11 4v2l7 2v5h2l3 8 4 2 10-1 15-4 52-11 36-8 33-6 60-10 48-10h6l1 3-2 2-1 2-17 5-13 5-2 4 1 3-24 7-18 5-34 4-50 9-42 9-26 5-9 2-15 1-49 10-50 9h-4z" fill="#3D6AC7"/>
<path transform="translate(139)" d="m0 0h368l-4 2-13 2-9 2-5 3-6 1-3-3h-2l-1 3-4 1-2 3-5 1v2l-3-1-2-1v-2l-2 1-30 4-9 2-4 1-18 1-3 2-4 1-16 2-25 6-16 5-14 5h-2l-6 9v6l-3 4-16 7-3-1v-8l-5-12v-2l-20 2-37 7-29 6-34 6-27 5-8 2h-11l-58 12-35 6-13 2v-2l64-12 39-8 21-2 23-5 26-5 22-5 56-10 28-3 18-5 20-6h4v-2l-3-1 3-2v-3l26-9 5-1 2-6-34 7-32 6-66 11-39 8-36 8-37 8-11 3-7-1-4-3-1-7h-2v-5l-5-1-3-3 3-2 9-3 1-2h2l1-4h2v-2h3l1-2 2 1 1-2 3-1 2-4 7-3 3-1 1-3 4-1 11-6 5-2z" fill="#2754AF"/>
<path transform="translate(894,787)" d="m0 0h2v109h-113l-1-10v-17l1-2v-37l1-21-2-1 1-1 26-4 28-6 39-7 12-2z" fill="#2754AF"/>
<path transform="translate(812,558)" d="m0 0 4 1v77l-3 92-3 69-6 2-30 5-10 2v-23l2-65 2-51 2-84 1-17 34-7z" fill="#0D3B98"/>
<path transform="translate(892,59)" d="m0 0 4 1v151l-21 7-26 10-15 6-5 1-8 3-6 1v-3l11-5h3v-2l11-5h2l1-74 2-68 1-3h4v-2l13-5 14-6z" fill="#2754AF"/>
<path transform="translate(830,238)" d="m0 0h2l1 5-1 32 12-4 9-4 14-4 10-2 2 1v-2l13-4 4 1v113l-27 8-20 5-7 2h-9v2l-3 2-5-1v-10l1-5 1-55v-41l1-34z" fill="#2754AF"/>
<path transform="translate(421,660)" d="m0 0h6l1 7-4 65-2 28-3 37-3 72-13 3-22 4h-4v-10l7-93 4-65 1-26 1-12 5-3 8-4z" fill="#0D3B98"/>
<path transform="translate(309,410)" d="m0 0 2 1 6 12 12 17 7 11 2 4 2 1v2h10l3 1v17h-23l-14 2-12 6-7 8-3 6-1 4v8l3 9 6 8 5 4 12 4-1 3 7 2v1l-9 2-6 2-16 5-25 9-9 5-7 1v-3l-6 2v2h2l1 5-7 1-3-1v-5l-16 6-5 2-3-1 16-7 11-4v-3l-15 5-12 5h-6v-11l1-10v-3l87-1 3-3 11-2v-2l-8-2-41-1v-95l18-8 7-2h4l1 29h16z" fill="#2654AF"/>
<path transform="translate(258,395)" d="m0 0 4 4 1 2v133h41l6 2 2 1v2l-7 2h-4l-1 3-2 1h-166l-2-4 1-2 38-1 1-4 5-1 26 1v-31h2v30l25 1v-39l2-2-2-4-1-36h-23v37l-2 2-2-4-1-34-21-1-2-1v-3l23-1v-39h3l1-2 1 2v40h24l-1-38-1-3h2l1-2h28l1-2zm-9 57-17 1-1 1v39h26v-38l-1-3z" fill="#C4DAED"/>
<path transform="translate(204,716)" d="m0 0h10l1 6-2 15-9 95-5 64h-31l1-25 8-100 4-47 1-4z" fill="#0D3B98"/>
<path transform="translate(894,787)" d="m0 0h2v45l-46 6-28 3-19 3-2 2-1 50h-17l-1-10v-17l1-2v-37l1-21-2-1 1-1 26-4 28-6 39-7 12-2z" fill="#2754AF"/>
<path transform="translate(476,476)" d="m0 0h23l8 22 4 13v3h2l2-9 10-27 3-2h20l2 16 2 29v11l3-3 6-17 10-26 4-9 1-1h20l3 3 10 26 10 25 1 4-1 1h-17l-4-8-2-6-21-1-1 6-3 9h-34l-1-1-2-34v-9l-7 20-9 22-3 2h-9l-3-3-8-22-5-16-1 2-1 31-1 8h-15v-12l3-40z" fill="#F5FBFC"/>
<path transform="translate(163,821)" d="m0 0h1v9l9-5-2 31-3 40h-72l-3-4v-2l-3 1-2-4 1-2-7 1v-2h-2l1-5h2v-2l-2-1 1-2-5-2-1-3 7-2v-2l-3-1v-4l4-1 2 1 1-2 3-2-1-5 5-2 5 1 1-4 3-1 13 1 2-7 4 1v2l4-1v2h8l1-4h-6l4-4h6v2h4l4-4v-2l6-2h5l3-4v-3z" fill="#2754AF"/>
<path transform="translate(354)" d="m0 0h153l-4 2-13 2-9 2-5 3-6 1-3-3h-2l-1 3-4 1-2 3-5 1v2l-3-1-2-1v-2l-2 1-30 4-9 2-4 1-18 1-3 2-4 1-16 2-25 6-16 5-14 5h-2l-6 9v6l-3 4-16 7-3-1v-8l-5-12v-2l-20 2-37 7-29 6-34 6-27 5-8 2h-11l-58 12-35 6-13 2v-2l64-12 39-8 21-2 23-5 26-5 22-5 56-10 28-3 18-5 20-6h4v-2l-3-1 3-2v-3l26-9 5-1 2-6-34 7-32 6-66 11-39 8-36 8-37 8-11 3-7-1v-1l14-3 56-13 27-6 25-5 32-5 45-8 30-7 16-4 14-3h3z" fill="#0C3A97"/>
<path transform="translate(348,7)" d="m0 0h6l1 3-2 2-1 2-17 5-13 5-2 4 1 3-24 7-18 5-34 4-50 9-42 9-26 5-9 2h-13l2-1-2-4-6-3-4-5 4-2 20-5 52-11 36-8 33-6 60-10 29-6z" fill="#2754AF"/>
<path transform="translate(625,476)" d="m0 0h18l7 9 15 23 3 6 1-37 1-1h31l5 5 8 16v2h3l2-5 9-17 1-1h17v3l-12 17-9 14-1 6v17l-2 2-15 1-1-25-7-11-11-17-4-4v55l-1 1h-16l-4-4-16-23-7-12-1-1v39l-1 1h-14l-1-9v-49z" fill="#F4FAFC"/>
<path transform="translate(830,238)" d="m0 0h2l1 5-1 32 12-4 9-4 14-4 10-2 2 1v-2l13-4 4 1v49l-13 5-19 4v2l-30 10h-3v19l-1 30v11l-3 1-1-15 1-55v-41l1-34z" fill="#2754AF"/>
<path transform="translate(145,545)" d="m0 0h66l1 9-2 15 7-2 16-6 6-2h4l1 4-19 7-9 3v2l-4 2h-3v3l-6 4h-2v2l-6 4-15 4-14 6-7 1-1-4h-5l-1 4-7 3-4-1-3-2-1 2v-12l2-5 1-9 2-1-1-6-8-4v-2l5 1v2l5 1-2-18 1-4z" fill="#3D6AC7"/>
<path transform="translate(633,441)" d="m0 0h24l5 14 1 1h42v2h-4v3l-4 2 4 2-1 4-6 1 1 2 2 1-4 1v2l-9 1h-14l-1 38-2-1-6-11-17-25-1-1h-20l1 58-4 1h-18v-1l17-1-2-6-11-28-8-21v-2l-22-1 2-2 7-1 3-2 3 1v-2l10 2 3 2 10 1 3-1 1-3 3-1v-4l-4 1v-2l-5-1-2-1v-2h2v-2l-3-1 20-1 2-10z" fill="#0F3D9A"/>
<path transform="translate(184,156)" d="m0 0h2l1 6-3 34-3 26-3 3-5 2-1-1v-18l-2 20h9l1 6-2 3h-3l-1 3-6-2-2-4 1-3-3 3-5-2-7-4-18-13-5-5-4-2-3-4-6-3-6-8 9-6 33-15 19-9h3l2 9v-9l4-5z" fill="#3D6AC7"/>
<path transform="translate(889,784)" d="m0 0h7v3l-11 3-19 3-34 6-23 5-26 4 1 1v58l-1 6v23h-17l-2-1v-2l5-2h9v-37l-32 4-9 1-1 1-17 2-7 2-46 7-19 3h-9l1-3 46-7 22-3 21-4 23-4 10-2 7-3 9-2 1-8 1-29-18 4-23 3-26 4-35 6-20 4-19 3-5 1-29 5-20 4-31 5-12 2-33 6-26 3-5 2-16 3-41 9-5 2h-3v2l-20 3-3 1-16 2-38 5-19 2h-7v-2l21-3 15-3 18-2 11-3 2-2 11-1 44-8 39-8 9-2 35-5 16-2 20-4 6-2 15-3 19-3 26-5 10-1v-2l19-2 32-6 48-7 34-6 5-1 2 1 1-3 18-4 40-6 23-4z" fill="#3C69C6"/>
<path transform="translate(63,521)" d="m0 0h7l-2 1 2 5 18 12 7 4 7 3 19 10 5 3 2 3-6-2-30-15-5-2-8 4-6 4-7 2-2 14 12 5v2l-10-2-3-1-2 18-2 13 13 4 17 8 15 4v1l-17 5-23 7-10 2-3-2-2 4-9 3-7 2 6-36 7-41 5-39 1-2h2l1 7h2l2-4 3-1z" fill="#2754AF"/>
<path transform="translate(294,392)" d="m0 0h19l5 5 13 18 8 13 3 6v2h2l-1-4-1-38 1-2 16 1 1 1v62l-1 2-19-1-3-2-4-7-12-18-7-11-4-8v26l-1 21h-16l-1-4v-59z" fill="#F6FBFC"/>
<path transform="translate(707,391)" d="m0 0 20 1 10 4 6 7 1 2v10l-4 6-3 3-5 1 7 9 6 15 2 8-7 1h-9l-5-5-6-16-3-4-13-1 1 24-1 1h-17l-1-2v-62l2-1z" fill="#F6FBFC"/>
<path transform="translate(406,391)" d="m0 0 5 1 15 36 8 21 2 5v4h-19l-3-3-3-14h-24l-1 6-3 10h-19l-1-3 15-41 8-19 3-2z" fill="#F6FBFC"/>
<path transform="translate(634,392)" d="m0 0h23l3 4 13 34 9 24 4 3h-23l-3-5-3-11h-24l-2 9-2 7-2 1-18-1 1-6 8-20 12-32 3-6z" fill="#F6FBFC"/>
<path transform="translate(437,392)" d="m0 0h16l1 1 1 19v23l3 7 5 3h10l6-3 3-5 1-5 1-40h17l1 1v39l-3 12-6 8-8 5-12 2h-9l-12-2-7-4-6-7-3-8-1-12v-17l1-16z" fill="#F6FBFC"/>
<path transform="translate(416,476)" d="m0 0h36l10 4 5 5 1 3v8l-4 6-5 4h-2l6 7 7 21v1h-16l-3-5-4-12-5-5-10-1v22l-1 1h-15l-1-21v-34z" fill="#F6FBFC"/>
<path transform="translate(166,133)" d="m0 0 7 1 8 4 6 4 1 7-2 4-13 8-6 1v2l-9 4-32 15-14 7-3 2h-5l-6-7v-2h-2v-13l11-7 42-21 12-7z" fill="#3D6AC7"/>
<path transform="translate(330,475)" d="m0 0 23 1 1 1v7l-2 5-11-1h-15l-8 3-5 6-2 5v8l4 8 8 5 11 1 6-1v-11h-10l-1-1v-10l27-1 1 2v31l-6 2-12 1h-20l-12-4-9-8-5-9-1-5v-8l3-8 4-6 8-7 9-4z" fill="#F5FBFC"/>
<path transform="translate(576,476)" d="m0 0h20l3 3 10 26 10 25 1 4-1 1h-17l-4-8-2-6-21-1-1 6-3 9h-16l-2-2 7-18 11-29 4-9z" fill="#F5FBFC"/>
<path transform="translate(291,510)" d="m0 0h2l3 9 6 8 5 4 12 4-1 3 7 2v1l-9 2-6 2-16 5-25 9-9 5-7 1v-3l-6 2v2h2l1 5-7 1-3-1v-5l-16 6-5 2-3-1 16-7 11-4v-3l-15 5-12 5h-6v-11l1-10v-3l87-1 3-3 11-2v-2l-8-2-40-2v-9l3 3 3-1 2-4 5 1-1-3 1-2h2v-4z" fill="#2754AF"/>
<path transform="translate(82,54)" d="m0 0h6l8 5v2l3 1v2l6 2 2 2v3l-9 3-44 9-50 9h-4v-21l45-9 34-7z" fill="#3A67C4"/>
<path transform="translate(364,475)" d="m0 0h43l2 1v11l-21 1h-8v11h28v12l-27 1-1 12h30l1 2v9h-47l-1-2v-56z" fill="#F5FAFC"/>
<path transform="translate(510,392)" d="m0 0h50v12l-31 1v14h29l1 2-1 10h-29v26l-16 1-3-1z" fill="#F4FAFC"/>
<path transform="translate(567,392)" d="m0 0h49v12h-31v15h29v11l-1 1h-28v26l-1 1h-17l-1-29z" fill="#F5FBFC"/>
<path transform="translate(261,454)" d="m0 0h1v81l5 1-4 2-4 3h3v-2l24 1 4 2 2-2h9l-1 4-2 1h-166l-2-4 1-2 38-1 1-4 5-1 26 1v-31h2v30l27 1 1-2v3l26-1 1-67z" fill="#F3F9FC"/>
<path transform="translate(215,147)" d="m0 0 18 5 13 4 2 2v33l-3 3-14 5-20 9h-2v-12l3-36 1-11z" fill="#3D6AC7"/>
<path transform="translate(139)" d="m0 0h40l-4 3-24 13-27 16-21 12-10 6h-2l1 6-4-2-1-7h-2v-5l-5-1-3-3 3-2 9-3 1-2h2l1-4h2v-2h3l1-2 2 1 1-2 3-1 2-4 7-3 3-1 1-3 4-1 11-6 5-2z" fill="#0D3A97"/>
<path transform="translate(145,545)" d="m0 0h18v10l-3 20 7 1h23l1 2-11 1h-19l-4 12v4l7 1v-2l7-4-1-9 10-1 2 4h6l2 1 1-3h2v-2l6-2-4-2 10-2 4-1 4 2-1 2h-3v3l-6 4h-2v2l-6 4-15 4-14 6-7 1-1-4h-5l-1 4-7 3-4-1-3-2-1 2v-12l2-5 1-9 2-1-1-6-8-4v-2l5 1v2l5 1-2-18 1-4z" fill="#2754AF"/>
<path transform="translate(336,457)" d="m0 0 14 1 3 1v17h-23l-14 2-12 6-7 8-3 6-3 9-12 2-4 1v2h-2v-32l24-9 12-5 10-3z" fill="#0D3A97"/>
<path transform="translate(99,192)" d="m0 0 10 5 15 11 5 6 5 2 5 5 8 7v2h2l4 5-4 4-10 3-8 4-5-1-8-5-11-8-6-5v-2l-4-2 1-30z" fill="#3D6AC7"/>
<path transform="translate(393)" d="m0 0h75v3l-10 1-12 3-16 3 2 2-7 1-1 1-24 4-10 2-10 1-9 2h-18l-11 4-9 2h-9l5-6 13-4 11-4 12-2v-2l17-3 1-2 5-2h3z" fill="#2653AE"/>
<path transform="translate(439,382)" d="m0 0h3v2h-2l-1 7-3 1v34l1 12 4 9 5 6 6 3 12 2 3 4-10 1-1 9h2v4h3l1 4-10-3-20-2 1-8 2-2 12-3v-5h-10l-5-10-11-29-9-22v-3l9-1 1-2 4-2 5-1 4-4z" fill="#0F3D9A"/>
<path transform="translate(408,472)" d="m0 0 6 2 2 2v59h-5l-1-11h-30v-12l1-1h27v-12h-28v-11l15-1h14v-11h-37l-6-1v-1l36-1z" fill="#3C69C6"/>
<path transform="translate(98)" d="m0 0h41l-2 3-10 4-6 4h-3l-4 4h-2l-1 2-5 2-1 2h-2l-1 2-4 2h-3v2h-2l-1 4h-2l-1 3-13 4-4-6-1-4v-8l4-6 15-9z" fill="#2653AE"/>
<path transform="translate(309,410)" d="m0 0 2 1 6 12 12 17 6 9-1 4-9 2-16 6-7 3-16 6-6 1-1-2v-15l1-12 8-3h3v-5h1l1 24h16z" fill="#103D99"/>
<path transform="translate(197,115)" d="m0 0 3 1h-2v2h-2l2 5-3 8-3 41-3 29-1 4-3 26-3 2-1-1 1-14 4-32 1-10 2-25 2-6 2-24-8 3-14 8-11 5-35 18-15 8-11 6-2 1v14l-3 6-3-4 1-15-7 5-2 10-3 37-4 44-3 14-3 1 4-33 6-74 6-3 10-6 32-16 27-14 20-10 17-9z" fill="#0D3B98"/>
<path transform="translate(249,452)" d="m0 0h7l1 3v38h-25l-1-1v-38l1-1z" fill="#2754AF"/>
<path transform="translate(231,410)" d="m0 0h26v38l-26 1z" fill="#0C3A97"/>
<path transform="translate(236,496)" d="m0 0h21v38h-25l-1-4v-33z" fill="#2956B1"/>
<path transform="translate(220,452)" d="m0 0h7l1 1v40h-24v-40z" fill="#3D6AC7"/>
<path transform="translate(63,528)" d="m0 0h2v9l-3 14-2 10-1 6-1 15-2 12-2 13-2 10-2 16h-4l-2-5-2-2v-13l2-13 5-32 6-37 2-1 1 2 5-1z" fill="#3D6AC7"/>
<path transform="translate(176,453)" d="m0 0h23l1 1v38l-19 1-5-1z" fill="#3D6AC7"/>
<path transform="translate(204,410)" d="m0 0h23l1 1v38h-24z" fill="#3D6AC7"/>
<path transform="translate(798,805)" d="m0 0m-7 1h7v2l-3 2v9l-1 16v61h-11l-1-10v-17l1-2v-37l1-21-2-1 1-1z" fill="#2754AF"/>
<path transform="translate(830,238)" d="m0 0h2l1 5-1 32 12-4 9-4 14-4 10-2 2 1v-2l13-4 4 1v2l-20 6-9 2-13 6-10 3-8 3-3 1-1 10v24l-1 9 16-4 8-4 8-1 1 3-30 10h-3v19l-1 30v11l-3 1-1-15 1-55v-41l1-34z" fill="#3E6BC8"/>
<path transform="translate(804,239)" d="m0 0h7l-1 2-4 3-44 15-44 16-17 7-13 5-14 7h-6l1 2v9l-3 1-1-6 1-5-16 6-5 1-1 3-2-1-12 4-16 6-12 4h-6v2l-10 4-6 1 2-4 10-3 4-2 9-4 19-6 8-3 6-2 5-1-1-9 1-13h-3v-2l6-1-1 3 2 20 14-5h2v-2h6l4-3 19-7 16-7 18-6 9-4 11-3 12-5 33-11z" fill="#3E6BC8"/>
<path transform="translate(221,496)" d="m0 0h6l1 1v37h-23l-1-1v-36z" fill="#2451AC"/>
<path transform="translate(177,410)" d="m0 0 23 1v37l-1 1h-21l-2-6v-32z" fill="#3D6AC7"/>
<path transform="translate(176,497)" d="m0 0h24v37h-18l-6-1z" fill="#3D6AC7"/>
<path transform="translate(376,396)" d="m0 0 4 1 2 1 1 6-10 25-9 25h-4v-53l10-3z" fill="#3D6AC7"/>
<path transform="translate(326,487)" d="m0 0h15l3 2-1 1-20 2-3 3h-2l-2 7 4-2 12-1v-2h22l1 2-5 2h-21l1 5v5l10 1 1 6v5l-7 2-11-1-8-5-4-6-1-3v-8l4-8 6-5z" fill="#113F9C"/>
<path transform="translate(564,475)" d="m0 0h11l-1 5-9 25-8 20-3 7h-2l-2-26v-24l2-4 3 1v3l-2 2 1 4 2 6 2-1 1-9 3-3v-3l2-1z" fill="#113E9B"/>
<path transform="translate(775,854)" d="m0 0h3v37l-9 1-5 1v2l2 1h-5l-1-10v-20l1-8 2-2z" fill="#0D3B98"/>
<path transform="translate(327,50)" d="m0 0 3 1-3 1v3l-6 3-12 7-1 3 1 16-1 6-3 3-2-2-4-7-6-1-1-7-4 1-21 9-4 2-1 2h-2l-1 3-9 1-20 9-8 4-12 5-3 5-1-4-2-1 5-3 17-7 16-8 24-11 32-16 15-8 13-8z" fill="#0D3B98"/>
<path transform="translate(412,876)" d="m0 0 3 1v19h-38v-13l15-4z" fill="#0D3B98"/>
<path transform="translate(58,604)" d="m0 0 9 3 17 7 11 3-1 3-4 1v2l-26 8h-10l-1-3z" fill="#3C69C6"/>
<path transform="translate(86,181)" d="m0 0h2v2h2v8l-3 27-3 29-2 28-2 3h-2v2h-3l1-21 3-36 3-37z" fill="#3B68C4"/>
<path transform="translate(798,807)" d="m0 0h3v38l-1 51h-6l-1-4v-64l1-12v-6z" fill="#0C3A97"/>
<path transform="translate(468)" d="m0 0h39l-4 2-13 2-9 2-5 3-6 1-3-3h-2l-1 3-4 1-2 3-5 1v2l-3-1-2-1v-2l-2 1-30 4-9 2-4 1-17 1v-3l12-1 12-3 14-2 6-2-1-2 27-5 9-2 3 1z" fill="#0D3B98"/>
<path transform="translate(97,226)" d="m0 0 8 6 13 10 8 4-2 4-16 8-7 3h-5l-2-4v-13l2-16z" fill="#3E6BC8"/>
<path transform="translate(335,7)" d="m0 0h2v2l-16 4-5 2-34 6-60 10-39 8-36 8-37 8-11 3-7-1v-1l14-3 56-13 27-6 25-5 32-5 45-8 30-7 5-1z" fill="#0A318E"/>
<path transform="translate(52,522)" d="m0 0h2l1 5 1 4-6 37-5 34-2 13v12h2l2 5 2 1v2l-9 3-7 2 6-36 7-41 5-39z" fill="#2754AF"/>
<path transform="translate(439,382)" d="m0 0h3v2h-2l-1 7-3 1-1 43h-1l-1-20-1 1h-9v2h2v2h-3l-9-21-1-6 9-1 1-2 4-2 5-1 4-4z" fill="#0D3B98"/>
<path transform="translate(193,344)" d="m0 0h8l4 1v2h7v2l2 1-7 1-1 4-9 1-3 3-4 1v3l-2-1-1 2-5-1-12-2-1-2-1 1h-11l-2-1 2-4 9-4 21-5z" fill="#2653AE"/>
<path transform="translate(196,139)" d="m0 0 5 2v14l-4 47-2 23h-2l-1 5-4 2-1-1 1-12 5-58 2-21z" fill="#3D6AC7"/>
<path transform="translate(775,811)" d="m0 0h4v27l-1 8-5 2-10 1-1-8 1-28z" fill="#0D3B98"/>
<path transform="translate(211,546)" d="m0 0h29l2 1v11l-9 4-16 6-4 1h-3v-11l1-10z" fill="#0C3A97"/>
<path transform="translate(803,327)" d="m0 0 2 1v6l-2 4-24 8-25 7-16 5h-2v2l-6 2h-5v2l-16 6-16 5-26 9-6 3-1-3 3-4 12-4 20-7 20-6 9-3h3l1-3 17-5 24-7 10-4 20-7 3-1z" fill="#3E6BC8"/>
<path transform="translate(291,510)" d="m0 0h2l3 9 6 8 2 6-9 1-31-1v-9l3 3 3-1 2-4 5 1-1-3 1-2h2v-4z" fill="#0D3B98"/>
<path transform="translate(248,455)" d="m0 0h6l-4 24-6 3-3 3-2-1-1 2-6-1v-29l6 1z" fill="#0D3B98"/>
<path transform="translate(167,477)" d="m0 0 3 3-1 9-1 43h-23l7-44 1-4 5-2v7l-3 5-4 31v6h6l3-10 2-6 1-7 1-28z" fill="#2653AE"/>
<path transform="translate(704,432)" d="m0 0h13l4 5 6 16 2 4-2 1-3-1-4 1h-8l-7-2-1-1z" fill="#123F9C"/>
<path transform="translate(409,499)" d="m0 0h1l1 17 4 1 1 18h-5l-1-11h-30v-12l1-1h28z" fill="#2D5AB6"/>
<path transform="translate(528,405)" d="m0 0h28l5 2 1 10v11l-3 1-1-9-29-1z" fill="#2653AE"/>
<path transform="translate(229,49)" d="m0 0h8l-1 2-50 10-34 6-27 5-8 2h-11l-58 12-35 6-13 2v-2l64-12 39-8 21-2 23-5 26-5 22-5z" fill="#0A318D"/>
<path transform="translate(208,573)" d="m0 0 5 2-1 2h-3v3l-6 4h-2v2l-6 4-15 4-14 6-7 1-1-5 4-1 2 1v-2l7-4-1-9 10-1 2 4h6l2 1 1-3h2v-2l6-2-4-2 10-2z" fill="#2754AF"/>
<path transform="translate(291,434)" d="m0 0h1l1 25h12v2l3 1-15 5-7 3-6 1-1-2v-15l1-12 8-3h3z" fill="#0D3A97"/>
<path transform="translate(211,371)" d="m0 0 4 1v20l-2 4-9 3-7-8-7-6 1-4 10-6z" fill="#3D6AC7"/>
<path transform="translate(299,172)" d="m0 0h5l1 5-3 3-28 13-13 6-3-1 2-9 6-4 15-6 14-6z" fill="#3E6BC8"/>
<path transform="translate(219,371)" d="m0 0 11 3 8 4 5 4-1 4-10 9-5 3-6-2-2-5-1-19z" fill="#123F9C"/>
<path transform="translate(241,198)" d="m0 0 6 1-1 7-14 7-16 7-8 4h-4l-1-7 6-5 29-13z" fill="#3E6BC8"/>
<path transform="translate(226,454)" d="m0 0h1l1 6v33h-15l2-10 1-11 1-5 1-8 1-2z" fill="#2754AF"/>
<path transform="translate(262,161)" d="m0 0 9 1 16 4 6 2-4 4-19 9-6 3h-4v-15z" fill="#3E6BC8"/>
<path transform="translate(462,374)" d="m0 0h1v33l-8 3-1-14-1-3h-13v-2l4-4-1-6z" fill="#0E3B98"/>
<path transform="translate(91,629)" d="m0 0h17l17 1 2 1 41 3 28 1 28 2v2h-20l-38-2-28-2-54-1-1-3z" fill="#2754AF"/>
<path transform="translate(441,22)" d="m0 0 9 3 1 3-3 2h-5v2l-10 4-4 1-9 2v2l-9 2 2 1v2l-10 2-10 5-19 5h-6l1-2 11-3 20-7 10-4h2l1-3 10-3 7-3-3-2-6 1-3-2 2-4 15-3 6 1z" fill="#0D3B98"/>
<path transform="translate(335,451)" d="m0 0 2 1 1 3 2 2-42 14-12 5-10 4h-5l1-4 11-5h3v-2l16-6 26-10z" fill="#3764C1"/>
<path transform="translate(800,288)" d="m0 0h2l1 3-3 2-10 2-6 3h-6v2l-24 8-10 3-7 3-21 6-26 10-7 3-9 4h-3l1-3 12-5 15-6 20-7 9-4 17-5 14-5 11-4 12-4 14-4z" fill="#3E6BC8"/>
<path transform="translate(332,53)" d="m0 0 6 1 11 4 14 3 10 3-1 2-4 1-11 6-4 3h-2v3l-10 4-3 4h-3l-1-5 5-9 5-1 1-3 9-5h2l-1-2-14-3-9-5z" fill="#0D3B98"/>
<path transform="translate(262,453)" d="m0 0h1v81h41l6 2 2 1v2l-7 2h-13l-2 2-4-2-18-1-6-1v2l-4 1-1-2 6-2 1-2-2-1z" fill="#BFD7EC"/>
<path transform="translate(432,414)" d="m0 0 2 1 1 11h1l1 12 4 9 5 6 6 3-3 1v2h-2v-2h-10l-5-10-9-24v-3h2v-2h-2v-2l4-1 5 1z" fill="#1643A0"/>
<path transform="translate(895,206)" d="m0 0h1v5l-21 7-26 10-15 6-5 1-8 3-6 1v-3l11-5 14-5 12-5 15-6z" fill="#3E6BC8"/>
<path transform="translate(237,497)" d="m0 0h10l1 1v8l-1 6v8l-9 2-6 1v-25z" fill="#0C3A97"/>
<path transform="translate(177,158)" d="m0 0 1 3-1 3v8l-1 5h-1l-1-14-20 9-19 9-16 7-8 5 6 8 6 3 2 4 4 1 5 5 19 14 1 2-5-2-16-12-5-2-5-6-17-12-6-5 2-2 2 2 7-1 10-6 37-17 7-3h2v-2z" fill="#2754AF"/>
<path transform="translate(633,441)" d="m0 0h17l-2 2 1 5 3 5v2h3v3l-6 1-2 3-4 1-6-2-2-3v-6l-2-3-2 1z" fill="#2754AF"/>
<path transform="translate(89,170)" d="m0 0v3l-4 3-2 10-3 37-4 44-3 14-3 1 4-33 6-74 6-3z" fill="#0D3B98"/>
<path transform="translate(707,403)" d="m0 0h8l7 1 4 6-1 5-3 3-5 2h-12l-1-2v-13z" fill="#2855B1"/>
<path transform="translate(245,388)" d="m0 0 4 1 5 10 3 5v2l-25 1-5-4 13-11z" fill="#14429E"/>
<path transform="translate(376,396)" d="m0 0 4 1 2 1 1 6-10 25-5 12-1-2 4-12v-11-4-4l1-2h2l1-6-5 2-2 2-2 3-1 2 2 1-3 1-1 5-2 2-1-1v-16l10-3z" fill="#2653AE"/>
<path transform="translate(354,483)" d="m0 0 2 2v6l-3 2 1 4h-22v2l-12 2-4 2-1-3 3-5 5-4 20-2 1-1h8z" fill="#2855B1"/>
<path transform="translate(890,832)" d="m0 0h6v3l-29 4-35 4-24 3h-5v-3l27-4 20-2 15-2z" fill="#3E6BC8"/>
<path transform="translate(146,487)" d="m0 0 2 1-10 6-29 11-11 4-3 2-6 1-16 8-5-3 3-3 42-15 16-6z" fill="#2754AF"/>
<path transform="translate(577,323)" d="m0 0 2 3-13 6-20 7-10 4-25 9-14 6-11 4-4-2 12-5 16-6 10-4 20-7 11-5 17-6z" fill="#3E6BC8"/>
<path transform="translate(628,838)" d="m0 0h2v11l-2 47h-5l-1-27 1-4 1-19z" fill="#0D3B98"/>
<path transform="translate(184,387)" d="m0 0 5 2 4 5 7 6 1 6-1 1-21-1v-7l4-10z" fill="#3D6AC7"/>
<path transform="translate(335,7)" d="m0 0h2v2l-16 4-5 2-34 6-60 10-8-1v-1l32-5 45-8 30-7 5-1z" fill="#0B3390"/>
<path transform="translate(159,134)" d="m0 0h2l-1 3-35 18-15 8-11 6-2 1v14l-3 6-3-4 1-15h-2v-2l19-10 23-11 19-10z" fill="#0A308C"/>
<path transform="translate(257,492)" d="m0 0h1v42l-1 1h-26l-3-1v-39l3-2zm-21 4-5 1v33l1 4h25v-38z" fill="#C4DAED"/>
<path transform="translate(521,484)" d="m0 0h1l-1 7-8 23h-2l-7-21v-5l5 2 4-4h8z" fill="#13419E"/>
<path transform="translate(433,486)" d="m0 0h10l6 2 2 2-1 8-5 3-12 1-1-1v-14z" fill="#2A57B3"/>
<path transform="translate(129,250)" d="m0 0 5 1 5 2-4 4-23 10-8-1-2-3 19-10z" fill="#3E6BC8"/>
<path transform="translate(226,497)" d="m0 0h1v35h-1v-8h-3v2h-4v2h-6v-2l2-1 3-9h-2v-3h2v-7h3v-7z" fill="#0C3996"/>
<path transform="translate(719,859)" d="m0 0m-8 1h8v2l-7 2-46 7-19 3h-9l1-3 46-7 22-3z" fill="#3E6BC8"/>
<path transform="translate(607,876)" d="m0 0h8l-4 2-11 2-21 6-12 2-16 4h-3v2h-3v-5l3-2 11-2 22-5 17-2z" fill="#3E6BC8"/>
<path transform="translate(466,501)" d="m0 0 3 1-1 6-1 1 3 1v2h2v23l-1 1h-16v-1l14-1-7-21-5-5v-2z" fill="#113D9A"/>
<path transform="translate(576,367)" d="m0 0h7v2l-16 6-15 5-14 4-9 1-1-2 2-3 23-6 9-3 8-2z" fill="#3E6BC8"/>
<path transform="translate(451,373)" d="m0 0h2l1 3-14 5-27 9-4-1-5 1-4-3h2v-2l10-2 8-2 9-1 18-6 3 1z" fill="#3D6AC7"/>
<path transform="translate(798,842)" d="m0 0 2 4v50h-5v-19l1-31z" fill="#092D89"/>
<path transform="translate(566,390)" d="m0 0 6 1v1h-5v66h-1l-1-15-2-4 1-16h-2l-1-6v-10l3-1 1-15z" fill="#3E6BC8"/>
<path transform="translate(160,578)" d="m0 0h13l5 1-4 3-4-1 2 9-6 4h-2v2h-7l-1-5z" fill="#3E6BC8"/>
<path transform="translate(309,126)" d="m0 0 3 3v2h-2l1 7v8h2l1 11-3 16h-5l-1-5 2-23 1-18z" fill="#0D3B98"/>
<path transform="translate(156,237)" d="m0 0 1 2 2 1 1 5-3 1-2 3-8 3-8-1-5-2v-3l9-3v-2l12-3z" fill="#3E6BC8"/>
<path transform="translate(645,406)" d="m0 0 2 1 5 17 1 5h-17l8-21z" fill="#3B68C5"/>
<path transform="translate(210,547)" d="m0 0 2 1-1 10-1 11 7-2 16-6 6-2h4l1 4-19 7-9 3v2l-5-1-2-3v-20z" fill="#3865C2"/>
<path transform="translate(397,406)" d="m0 0h2l8 23h-16l2-9z" fill="#1D49A5"/>
<path transform="translate(156,482)" d="m0 0h2v7l-3 5-4 31 1 7h-7l7-44 1-4z" fill="#2451AC"/>
<path transform="translate(246,381)" d="m0 0h2l5 9 3 5 1 9-3-2-4-10-2-3-4 1-11 9-7 5-2-5h3v-2l8-6 7-6h2v-3z" fill="#EAF3F9"/>
<path transform="translate(221,496)" d="m0 0h6l-5 5-1 5h-3v7h-2v3h2l-1 6-2 4h-2l-1 2v-27l1-3z" fill="#2855B0"/>
<path transform="translate(223,411)" d="m0 0h5v38h-5z" fill="#173C98"/>
<path transform="translate(148,554)" d="m0 0 1 2h8v10l-1 7v4h-2l-4-6h-5v-10z" fill="#3E6BC8"/>
<path transform="translate(208,497)" d="m0 0h7l-2 1v32h-3l-3-1-1-7 1-16 3-8z" fill="#3D6AC7"/>
<path transform="translate(796,384)" d="m0 0 4 1v2l-26 8-14 5h-3l-2-6 3-3 2 4 3 1v-2l6-3 4-1 21-5z" fill="#3E6BC8"/>
<path transform="translate(686,456)" d="m0 0h19v2h-4v3l-4 2 4 2-1 4-5 1-4-2-3-5-3-3v-2h-22v-1z" fill="#2653AE"/>
<path transform="translate(380,512)" d="m0 0 3 4 3-1 3 1v-2h13l4 1 2-1 1 5-3 2h-26z" fill="#3E6BC8"/>
<path transform="translate(226,454)" d="m0 0h1v38h-5v-5l-1-3v-16l4-7v-6z" fill="#0C3794"/>
<path transform="translate(895,876)" d="m0 0h1v6l-19 1-19 2h-6l-2-1v-2l15-2 4-1h10l7-1 1-1z" fill="#3E6BC8"/>
<path transform="translate(249,500)" d="m0 0 5 1 1 3-1 5 1 13h-2l-1 2 2 1-3 2-1-1h-8l-2-3 6-2 2-8z" fill="#3D6AC7"/>
<path transform="translate(585,489)" d="m0 0h2l6 18v3h-13l-1-4 5-16z" fill="#15409D"/>
<path transform="translate(70,533)" d="m0 0 9 3 4 5-11 8h-6l1-9z" fill="#3E6BC8"/>
<path transform="translate(432,414)" d="m0 0 2 1v21l-3-1-2-6h-2l-1 2-3-8v-3h2v-2h-2v-2l4-1 5 1z" fill="#2855B1"/>
<path transform="translate(458,412)" d="m0 0h4l-2 8 1 22h-4l-2-3v-26z" fill="#0E3996"/>
<path transform="translate(431,383)" d="m0 0h2l-2 5-5 1-5 3-3 1h-7l-5-1h-13l-2-2 4-3 7-1 2 3 6-1 3 1z" fill="#2956B1"/>
<path transform="translate(127,532)" d="m0 0 31 2 1 2-5 1-30 2-2-1 1-5z" fill="#F0F7FB"/>
<path transform="translate(249,452)" d="m0 0h7l1 3v38h-25v-1h23v-3l-3-1 1-15 1-2 1-18-5 1z" fill="#3E6BC8"/>
<path transform="translate(258,395)" d="m0 0 4 4 1 2-1 52-1-3h-2v-46z" fill="#FAFEFE"/>
<path transform="translate(326,487)" d="m0 0h15l3 2-1 1-20 2-3 3h-2l-2 7 1 2-5 2-1-7 4-6 5-4z" fill="#14419E"/>
<path transform="translate(302,528)" d="m0 0 10 5 7 2-1 3 7 2v1l-9 2-8 2-6-2v-2l10-2v-2l-8-2-9-1v-1l8-1z" fill="#1C46A2"/>
<path transform="translate(101,189)" d="m0 0 8 4 5 5 5 4 5 3 1 3 4 1 5 5 19 14 1 2-5-2-16-12-5-2-5-6-17-12-6-5z" fill="#0D3B98"/>
<path transform="translate(710,444)" d="m0 0 4 1 1 3 3 1v2l7 1 4 4-2 2-3-1-4 1h-8l-5-1 2-5h2v-2h2v-2l-4-2z" fill="#2653AF"/>
<path transform="translate(341,396)" d="m0 0h2v34l-4-5-2-7-4-2v-2l6-2z" fill="#2754AF"/>
<path transform="translate(893,301)" d="m0 0h3v5l-13 5-14 3h-6l4-3 5-2 9-3 5-3 4-1z" fill="#3E6BC8"/>
<path transform="translate(228,497)" d="m0 0 3 2 1 35h25v1h-26l-3-1z" fill="#D8E8F3"/>
<path transform="translate(231,410)" d="m0 0h26v38h-14v-1h11l1-6 1-30h-24v37h9v1h-10z" fill="#3360BC"/>
<path transform="translate(185,382)" d="m0 0 4 1 15 14 1 7-5-2-5-6-5-4-5-6z" fill="#F0F7FB"/>
<path transform="translate(264,445)" d="m0 0 2 2-1 67h-1l-1-19v-49z" fill="#0E3C99"/>
<path transform="translate(409,499)" d="m0 0h1v13l-4 4-9-1-8-1v2h-5l-2 2-1-7h28z" fill="#224FAA"/>
<path transform="translate(201,402)" d="m0 0 4 2v2h20l2 1v-3l3 1-2 4-1 1h-23l-4-2z" fill="#C0D8EC"/>
<path transform="translate(214,399)" d="m0 0 10 1 3 4v3l-22-1 1-5z" fill="#3C69C6"/>
<path transform="translate(630,383)" d="m0 0 4 2-1 6-1 3-1 5-3 1v-2l-6 1v-8h2l2-4 2 1 1-4z" fill="#3D6AC7"/>
<path transform="translate(704,405)" d="m0 0 1 2h5l3 4h2l-1-6h3l3 3v4l-4 1v3l-12 2z" fill="#3C69C6"/>
<path transform="translate(433,459)" d="m0 0h14v3l-7 3-6 2-1 7-1 1h-16l3-2h8l2 1v-3h2l-1-7 2-2h5v-2z" fill="#2754AF"/>
<path transform="translate(309,410)" d="m0 0 2 1 8 16h-2l-1 3-7 3z" fill="#234FAB"/>
<path transform="translate(197,115)" d="m0 0 3 1h-2v2h-2l1 4-1 2h-3v-3l-8 3-14 8-7 3h-3v-2l15-8z" fill="#0C3996"/>
<path transform="translate(124,318)" d="m0 0 10 3 1 3h7v2l3 1-4 2-3-2h-5l-4-1-8-1-3-3 1-3z" fill="#2653AE"/>
<path transform="translate(204,497)" d="m0 0 6 1-2 8-1 23h-2l-1 4z" fill="#2C59B5"/>
<path transform="translate(598,443)" d="m0 0 5 3v3l-4 2-1 3-5 2-4-1v-2l-2-1 1-3h2v-2z" fill="#3E6BC8"/>
<path transform="translate(390,440)" d="m0 0h8v2h-4l-1 7v3l-6 2-1 2-2-1v-6l3-8z" fill="#2A57B2"/>
<path transform="translate(454,396)" d="m0 0h1l1 13 16-5 6-1v3l-19 6-4 1v22h-1z" fill="#3966C2"/>
<path transform="translate(218,372)" d="m0 0 3 4 5 5v5 3l-1 4h-2v3l-3-1-1-4z" fill="#2B58B4"/>
<path transform="translate(87,223)" d="m0 0h2v11l-2 21-2 20-2 1v-13z" fill="#0D3B98"/>
<path transform="translate(571,888)" d="m0 0h4l2 6v2h-26l1-4 9-1 2 2 7 1v-2h2z" fill="#0D3B98"/>
<path transform="translate(301,541)" d="m0 0 4 2 4 1-1 2-16 2-6-1-44-1v-1l56-1z" fill="#3C69C6"/>
<path transform="translate(110,570)" d="m0 0h5l-2 2-22 6 3 3 14 7 2 3-9-2-14-9-1-2h3v-2z" fill="#2754AF"/>
<path transform="translate(230,455)" d="m0 0h1v38l-3-4v-32z" fill="#BFD7EC"/>
<path transform="translate(291,506)" d="m0 0 1 4-10 4-10 3h-5l2-2 5-3 1-2 7-3z" fill="#3764C0"/>
<path transform="translate(243,373)" d="m0 0 4 1 7 6 6 11 1 7-4-4-6-10-2-4-4-2-3-2z" fill="#DDEBF5"/>
<path transform="translate(335,512)" d="m0 0h5l1 6v5l-7 2-11-1v-2l9-2h7l-1-3-6-2-2-2z" fill="#10328E"/>
<path transform="translate(202,407)" d="m0 0 2 3-1 40-2-4-2-37h3z" fill="#F6FBFC"/>
<path transform="translate(408,472)" d="m0 0 6 2v2h-3l-1 2v-2h-38l-6-1v-1l36-1z" fill="#2452AE"/>
<path transform="translate(335,7)" d="m0 0h2v2l-16 4-5 2-7 1h-10l2-2 24-6z" fill="#0B3390"/>
<path transform="translate(362,500)" d="m0 0h1l1 35-9-1 2-1 1-23h1l1 7h1v5h-1v5h2z" fill="#2754AF"/>
<path transform="translate(675,433)" d="m0 0h2v2h2v2h3l2 5v9l-1 3h-2l-6-16z" fill="#113E9B"/>
<path transform="translate(518,386)" d="m0 0 7 1 2 3 33 1v1h-50l3-2h2l-1-3 4 1z" fill="#3E6BC8"/>
<path transform="translate(622,351)" d="m0 0 4 1-10 5-9 3-10 4-10 2 1-3 6-2 5-2 18-6z" fill="#3E6BC8"/>
<path transform="translate(535,788)" d="m0 0h1v11l-2 27-1 22-3-1 3-41z" fill="#0D3B98"/>
<path transform="translate(467,6)" d="m0 0 2 1v13l-1 13-3 1-1-3 1-24z" fill="#3C69C6"/>
<path transform="translate(533,496)" d="m0 0 2 4 1 22v12h-1l-1-9-3-1v-11z" fill="#305DB9"/>
<path transform="translate(361,419)" d="m0 0h1l1 19 1 7 1-1 1 4-3 7-3-1v-16z" fill="#2653AF"/>
<path transform="translate(433,486)" d="m0 0h10l5 1v4l-7 1-4-1-2-1v5l-3-2v-6z" fill="#13409D"/>
<path transform="translate(516,468)" d="m0 0h9l3 3v2l-6-1-1 3h-8l-4-4z" fill="#3E6BC8"/>
<path transform="translate(229,406)" d="m0 0h3l-1 4-1 36-2-3-1-32-1-3h2z" fill="#FAFEFE"/>
<path transform="translate(247,497)" d="m0 0 9 1v21l-2-2-1-10 1-4-2-1v-2h-3l1 3-1 12-2 2-1-8 1-3z" fill="#2754AF"/>
<path transform="translate(90,171)" d="m0 0h2v13l-2 2v-3h-2v-2l-5 4 1-9z" fill="#2754AF"/>
<path transform="translate(352,788)" d="m0 0 3 1 16 1 1 2-8 2-11 1-2-1z" fill="#3E6BC8"/>
<path transform="translate(295,15)" d="m0 0 10 1v1l-35 6-2-1 1-2 22-4z" fill="#0C3895"/>
<path transform="translate(128,48)" d="m0 0 3 1h-2v2l-22 5-8 2-7-1v-1l14-3z" fill="#0B3491"/>
<path transform="translate(571,886)" d="m0 0h4v2l-3 1v3h-2v2h-8l-1-3-9 1 3-2z" fill="#2754AF"/>
<path transform="translate(223,412)" d="m0 0h1v18l-1 19-3-1 1-26z" fill="#2754AF"/>
<path transform="translate(177,158)" d="m0 0 1 3-1 3v8l-1 5h-1l-1-14-13 6-3-1 3-3 6-1v-2z" fill="#1D4AA6"/>
<path transform="translate(831,885)" d="m0 0h12l15 1v1l-12 1-28 1v-2z" fill="#3E6BC8"/>
<path transform="translate(501,383)" d="m0 0 3 1 1 7-1 2v17l-1 17h-1l-1-34-3-2z" fill="#3D6AC7"/>
<path transform="translate(682,261)" d="m0 0h5l-2 2-18 7h-6l5-5z" fill="#3E6BC8"/>
<path transform="translate(153,42)" d="m0 0h6v2l-16 4-9 2h-5l3-3z" fill="#0A308D"/>
<path transform="translate(150,512)" d="m0 0 2 3-1 14 1 3h-7l3-17z" fill="#2350AC"/>
<path transform="translate(93,170)" d="m0 0h3l1 14-3 6-3-4 1-14 1-1z" fill="#0D3B98"/>
<path transform="translate(643,359)" d="m0 0h2l1 18-1 7-1 4h-1l-1-16z" fill="#3E6BC8"/>
<path transform="translate(232,453)" d="m0 0h18l1 2-7 2-7 1-4-1-2 2v-5z" fill="#2B58B3"/>
<path transform="translate(332,497)" d="m0 0h22l1 2-3 1h-23l3-1z" fill="#0B3591"/>
<path transform="translate(645,406)" d="m0 0 2 1 5 17v4h-10v-1h6l1-4-2-5v-3l-4-1 1-6z" fill="#224FAB"/>
<path transform="translate(242,376)" d="m0 0 4 2 5 5 6 9 2 6v7l-2-1-3-11-6-10v-2l-4-2z" fill="#2E5AB6"/>
<path transform="translate(312,537)" d="m0 0 2 1v2l9-1 2 2-9 2-8 2-6-2v-2l10-2z" fill="#2651AE"/>
<path transform="translate(707,403)" d="m0 0h8l4 1v3h-2v-2h-3l2 7-2 2-1-2-2 1-1-5-5-1v-3z" fill="#1C48A4"/>
<path transform="translate(644,315)" d="m0 0h1l1 29-7 2v-2l3-1 1-26z" fill="#3E6BC8"/>
<path transform="translate(382,520)" d="m0 0 24 1 4 2h-30v-2z" fill="#1A47A3"/>
<path transform="translate(236,496)" d="m0 0h21v34h-1l-1-30-6-2-13-1z" fill="#3E6BC8"/>
<path transform="translate(413,395)" d="m0 0 6 1 2 3v5l-2 5-3-3-3-7z" fill="#0D308C"/>
<path transform="translate(612,818)" d="m0 0 3 3 1 7 5 1-2 2-9 1 1-11z" fill="#0D3B98"/>
<path transform="translate(197,209)" d="m0 0 2 4 2 5-1 5-5 4-1-2z" fill="#0D3B98"/>
<path transform="translate(769,891)" d="m0 0h9l1 5h-13l-2-1v-2z" fill="#2754AF"/>
<path transform="translate(167,477)" d="m0 0 3 3-1 9-3 3-2 3v-15z" fill="#2653AF"/>
<path transform="translate(332,416)" d="m0 0 5 2 7 14v4h-2l-9-17z" fill="#163F9C"/>
<path transform="translate(224,412)" d="m0 0h1l1 11-1 11-1 2h2l-2 12 2 1h-3v-28z" fill="#0C3A97"/>
<path transform="translate(505,403)" d="m0 0 2 3v11l-1 5h-1l-1 7h-1v-22z" fill="#0D3B98"/>
<path transform="translate(101,189)" d="m0 0 8 4 5 5 9 8h-3l-14-10-6-5z" fill="#0C3995"/>
<path transform="translate(667,491)" d="m0 0h1v21l-4-4-3-5 1-3 3 1 1-1z" fill="#0C2E8A"/>
<path transform="translate(291,398)" d="m0 0h1v30h-2l-1-19 1-1v-9z" fill="#092A86"/>
<path transform="translate(684,479)" d="m0 0 4 2 1 7v3l-2 1-1 9h-1z" fill="#0C2F8B"/>
<path transform="translate(686,456)" d="m0 0h19v2l-15 1-1 3h-3l-1-4h-22v-1z" fill="#3360BC"/>
<path transform="translate(388,487)" d="m0 0 19 1-1 3-3-1-12-1v2l-9 1-1-4z" fill="#2855B0"/>
<path transform="translate(723,414)" d="m0 0 1 3-7 3h-12v-3l8-1h7z" fill="#14419D"/>
<path transform="translate(614,419)" d="m0 0h1v6h2l1 5-4 2h-29v-1l28-1z" fill="#3E6BC8"/>
<path transform="translate(296,525)" d="m0 0 5 3 3 4v1h-11l-1-3h2l1-4z" fill="#092A86"/>
<path transform="translate(228,523)" d="m0 0h2v7h2v4h25v1h-26l-3-1z" fill="#BFD7EC"/>
<path transform="translate(215,400)" d="m0 0h9l3 4v3l-6-2v-2l-4 1h-7l1-2 4 1z" fill="#2653AE"/>
<path transform="translate(260,44)" d="m0 0m-9 1h9v2l-23 3-3-2z" fill="#0D3B98"/>
<path transform="translate(689,470)" d="m0 0h5l1 2 2 1-4 1v2l-9 1 1-3-2-1z" fill="#2754AF"/>
<path transform="translate(493,458)" d="m0 0h6l-1 6 1 3-5 2-2-6z" fill="#3E6BC8"/>
<path transform="translate(442,383)" d="m0 0 3 3-3 5-5 2-1 16h-1v-17l4-1-1-4h2v-3z" fill="#2D5AB6"/>
<path transform="translate(342,396)" d="m0 0h1v30l-2-3-2-8 1-3h2z" fill="#3E6BC8"/>
<path transform="translate(631,823)" d="m0 0 6 2 2 2-13 3-2-1 5-5z" fill="#0D3B98"/>
<path transform="translate(325,437)" d="m0 0h2l5 8v2l-5 1-4-8 2-1z" fill="#0E318D"/>
<path transform="translate(159,134)" d="m0 0h2l-1 3-17 9-1-2 3-3z" fill="#0A318D"/>
<path transform="translate(166,516)" d="m0 0h1l1 16h-6l2-1v-12z" fill="#0D3B98"/>
<path transform="translate(210,547)" d="m0 0 2 1-1 10-1 11 4-1 2 2-6 3-1-2v-20z" fill="#2754AF"/>
<path transform="translate(585,500)" d="m0 0 2 1 2 6 1 2-10 1-1-4 4-1z" fill="#1F4CA8"/>
<path transform="translate(585,489)" d="m0 0h2v6l-2 3-1 7-4 1 4-16z" fill="#113591"/>
<path transform="translate(229,461)" d="m0 0h1l1 20v12l-3-4z" fill="#E8F2F8"/>
<path transform="translate(442,450)" d="m0 0 7 5 3 2h-3v2h-2v-2h-10l1-3 3-1z" fill="#2A57B2"/>
<path transform="translate(399,386)" d="m0 0 3 1 3 4-12 1-2-2 4-3z" fill="#2754AF"/>
<path transform="translate(201,172)" d="m0 0h1v15l-2 11-2-1 2-20z" fill="#0D3B98"/>
<path transform="translate(335,7)" d="m0 0h2v2l-16 4h-5l1-3 9-2z" fill="#0A2F8C"/>
<path transform="translate(92,265)" d="m0 0 4 1 1 3 2 1-4 3-5-1v-5h2z" fill="#3E6BC8"/>
<path transform="translate(621,522)" d="m0 0 3 4v9l-4 1h-18v-1l17-1 3-3-1-2z" fill="#2B58B4"/>
<path transform="translate(889,353)" d="m0 0h5l-1 4-4 2h-5v-4z" fill="#3A67C4"/>
<path transform="translate(550,845)" d="m0 0m-2 0 2 1v2l-14 3h-5l2-3 11-2z" fill="#3E6BC8"/>
<path transform="translate(291,434)" d="m0 0h1v23h-1l-2-9-1-4 1-4h2z" fill="#092B88"/>
<path transform="translate(141,143)" d="m0 0 2 1-4 4-10 5-3-1 9-6z" fill="#0A2E8A"/>
<path transform="translate(335,512)" d="m0 0h5l1 6v5l-3-6-6-2-2-2z" fill="#133793"/>
<path transform="translate(576,520)" d="m0 0h20l-1 4-11-2-8 1z" fill="#092B87"/>
<path transform="translate(167,487)" d="m0 0h1v15l-3 2-1-9z" fill="#1946A2"/>
<path transform="translate(317,494)" d="m0 0 1 3-2 5 1 2-5 2-1-7 3-4z" fill="#1A48A4"/>
<path transform="translate(204,455)" d="m0 0h2v5h2l1 4-3 5-2 1z" fill="#2754AF"/>
<path transform="translate(292,540)" d="m0 0h9l-1 4h-11l2-1z" fill="#F7FCFD"/>
<path transform="translate(206,373)" d="m0 0h8l-1 4v-2l-8 1v3l-6-1v-2z" fill="#2A57B2"/>
<path transform="translate(191,56)" d="m0 0 3 1-3 3-5 1h-7l3-3z" fill="#0A2E8A"/>
<path transform="translate(312,511)" d="m0 0 4 2v3l5 1 1 5-5-1-5-6z" fill="#0F328E"/>
<path transform="translate(255,383)" d="m0 0 4 5 2 10-4-4-3-7z" fill="#BFD7EC"/>
<path transform="translate(220,530)" d="m0 0 4 1v3h-19l3-2 11 1z" fill="#3E6BC8"/>
<path transform="translate(245,388)" d="m0 0 4 1 1 5h-3-2l-4-1z" fill="#0E328E"/>
<path transform="translate(189,34)" d="m0 0h10l-2 2-9 2h-5l1-3z" fill="#0A2F8C"/>
<path transform="translate(532,830)" d="m0 0h1v18l-3-1 1-16z" fill="#0C3A97"/>
<path transform="translate(258,395)" d="m0 0 4 4 1 2v8l-3-2z" fill="#E7F2F8"/>
<path transform="translate(150,501)" d="m0 0 3 2v8l-2 4-2-1z" fill="#2754AF"/>
<path transform="translate(341,396)" d="m0 0h1v16l-5 3v-3h2z" fill="#2956B1"/>
<path transform="translate(251,392)" d="m0 0 4 1 2 8-1 3-3-5z" fill="#D5E5F2"/>
<path transform="translate(614,517)" d="m0 0 3 1 3 9-3 1-3-7z" fill="#0F328F"/>
<path transform="translate(436,455)" d="m0 0 1 2 7-1 3 1v2l-9 1-5-1 3-1z" fill="#3E6BC8"/>
<path transform="translate(645,406)" d="m0 0 2 1 1 10-1-2-4-1 1-6z" fill="#2956B2"/>
<path transform="translate(139,281)" d="m0 0 9 1 3 3h-10l-3-3z" fill="#2754AF"/>
<path transform="translate(89,170)" d="m0 0v3l-4 3-2 5-2 1v-8l5-2z" fill="#0B3693"/>
<path transform="translate(714,405)" d="m0 0h3l3 3v4l-5 1z" fill="#3966C3"/>
<path transform="translate(315,392)" d="m0 0h2v2l4 1 2 5h-4l-4-5z" fill="#0F328E"/>
<path transform="translate(120,203)" d="m0 0 4 2 1 3 4 1 1 4 1 2-4-2-4-5z" fill="#224FAA"/>
<path transform="translate(119,185)" d="m0 0m-2 1h2l-1 3-7 4 2 4-4-2-1-3z" fill="#2754AF"/>
<path transform="translate(379,811)" d="m0 0h1v10l-2 1-2-4 1-6z" fill="#3E6BC8"/>
<path transform="translate(229,406)" d="m0 0h3l-3 15h-1l-1-10-1-3h2z" fill="#E8F2F8"/>
<path transform="translate(306,535)" d="m0 0 4 1 2 1v2l-2 1h-6l-1-4z" fill="#D6E6F3"/>
<path transform="translate(403,420)" d="m0 0 2 3 2 6h-12l3-4h2v2l5 1v-2h-2z" fill="#3461BD"/>
<path transform="translate(176,59)" d="m0 0 4 1-1 2-13 2 1-3z" fill="#0B328F"/>
<path transform="translate(153,42)" d="m0 0h6v2l-7 2h-5l2-3z" fill="#092D8A"/>
<path transform="translate(471,529)" d="m0 0h1v6l-1 1h-16v-1l14-1z" fill="#3562BE"/>
<path transform="translate(361,528)" d="m0 0 2 4 1 3-9-1 2-1 1-3 3 1z" fill="#325FBB"/>
<path transform="translate(236,496)" d="m0 0h19l-1 4-5-2-13-1z" fill="#3D6AC7"/>
<path transform="translate(680,442)" d="m0 0 2 2v5l2 2-1 3h-2l-2-5z" fill="#123793"/>
<path transform="translate(397,406)" d="m0 0h2l1 2v6l-4 1z" fill="#153D9A"/>
<path transform="translate(210,363)" d="m0 0h21l1 3-22-2z" fill="#244DAA"/>
<path transform="translate(116,156)" d="m0 0m-2 1h2l-1 3-8 4-2-1 4-4z" fill="#092B87"/>
<path transform="translate(534,490)" d="m0 0h1v5l-3 8-3 1 3-9z" fill="#2752AE"/>
<path transform="translate(158,167)" d="m0 0m-2 1h2v2l-10 5h-3v-2z" fill="#2552AD"/>
<path transform="translate(302,528)" d="m0 0 5 3 1 4-13-1v-1l8-1z" fill="#1845A2"/>
<path transform="translate(149,545)" d="m0 0h7l2 3-2 4-3 1-1-6z" fill="#3E6BC8"/>
<path transform="translate(321,497)" d="m0 0 4 2-6 3h-4l1-3z" fill="#3966C3"/>
<path transform="translate(264,445)" d="m0 0 2 2v8h-3v-9z" fill="#0C3A97"/>
<path transform="translate(275,19)" d="m0 0 7 1v1l-14 2 1-3z" fill="#0C3A97"/>
</svg>
